<?xml version="1.0" encoding="utf-8"?>
<!-- Generator: Adobe Illustrator 15.0.2, SVG Export Plug-In . SVG Version: 6.00 Build 0)  -->
<!DOCTYPE svg PUBLIC "-//W3C//DTD SVG 1.1//EN" "http://www.w3.org/Graphics/SVG/1.1/DTD/svg11.dtd">
<svg version="1.1" id="Ebene_1" xmlns="http://www.w3.org/2000/svg" xmlns:xlink="http://www.w3.org/1999/xlink" x="0px" y="0px"
	 width="100px" height="100px" viewBox="0 0 100 100" enable-background="new 0 0 100 100" xml:space="preserve">
<circle fill="#B2B2B2" cx="50" cy="50" r="50"/>
<path fill="#1D1D1B" d="M41.5,23.5 C29.5,29 22,40 22.5,49.5 C23,57.5 29,67.5 39,73.5 C26.5,74 19.5,58.5 19.5,51.5 C18,60 21,76 37.5,82 C42.5,83.5 52.5,84 57,80.5 C65,75 62,67.5 55.5,62 C48,56 41.5,52 38,44 C35.5,38 34.5,31 41.5,23.5 M48,49.5 C37.5,39 39.5,31.5 46,22.5 C49.5,18 52.5,13.5 52,8 C68,25 53,30.5 61,39.5 C62,34.5 65.5,29.5 70,26 C68.5,39.5 73,40 77,48 C83,61 74.5,75.5 62,81.5 C67.5,76 68,69 62,62 C58.5,58.5 53,55 48,49.5 "/>
</svg>
